<?xml version="1.0" standalone="no"?>
<!DOCTYPE svg PUBLIC "-//W3C//DTD SVG 20010904//EN"
 "http://www.w3.org/TR/2001/REC-SVG-20010904/DTD/svg10.dtd">
<svg version="1.0" xmlns="http://www.w3.org/2000/svg"
 width="750.000000pt" height="750.000000pt" viewBox="0 0 750.000000 750.000000"
 preserveAspectRatio="xMidYMid meet">
<metadata>
Created by potrace 1.11, written by Peter Selinger 2001-2013
</metadata>
<g transform="translate(0.000000,750.000000) scale(0.100000,-0.100000)"
fill="#000000" stroke="none">
<path d="M6597 6203 c-2 -1 -95 -4 -207 -7 -214 -6 -398 -15 -453 -21 -47 -6
-116 -16 -140 -21 -52 -10 -76 -14 -142 -20 -38 -3 -81 -7 -95 -9 -14 -1 -83
-20 -155 -43 -71 -22 -141 -42 -155 -45 -44 -10 -243 -83 -295 -109 -100 -50
-185 -97 -212 -116 -15 -11 -66 -42 -113 -70 -47 -28 -120 -82 -162 -122 -65
-59 -80 -80 -93 -123 -23 -75 -30 -171 -13 -188 7 -8 14 -27 16 -43 2 -17 12
-41 21 -55 10 -14 49 -84 85 -156 82 -158 91 -210 50 -290 -28 -57 -59 -83
-68 -60 -3 8 0 15 6 15 18 0 2 66 -38 150 -35 76 -36 78 -19 104 18 26 17 27
-21 83 -21 30 -51 71 -66 91 -26 32 -27 37 -13 52 21 24 19 32 -20 70 -28 27
-32 36 -24 53 9 15 6 24 -13 46 -62 67 -71 78 -80 101 -6 14 -10 37 -9 52 1
18 -9 36 -28 55 -16 15 -38 44 -49 63 -11 22 -30 38 -48 44 -95 27 -119 41
-129 74 -7 25 -15 32 -35 33 -14 1 -38 3 -55 4 -97 11 -152 18 -170 21 -83 16
-172 -3 -208 -44 -15 -17 -24 -19 -44 -11 -53 20 -153 -3 -169 -39 -12 -26
-13 -93 -3 -133 10 -42 35 -58 44 -29 9 28 36 33 60 10 19 -17 26 -19 50 -10
22 8 30 8 36 -2 6 -9 -7 -16 -46 -23 -30 -6 -58 -15 -62 -19 -10 -10 25 -36
48 -36 26 0 33 -19 15 -38 -23 -26 -6 -40 45 -40 104 0 187 -89 165 -175 -5
-22 -17 -30 -105 -71 -39 -18 -36 -34 8 -52 23 -9 41 -21 41 -28 0 -22 -67
-57 -121 -63 -91 -10 -98 -33 -19 -68 22 -10 40 -23 40 -29 0 -17 -107 -84
-154 -97 -64 -17 -96 -31 -96 -40 0 -12 42 -39 62 -39 9 0 20 -4 23 -10 8 -14
-46 -80 -66 -80 -21 0 -86 74 -106 120 -33 75 -13 149 100 375 54 108 60 126
61 185 1 94 -50 200 -141 287 -122 118 -391 281 -538 326 -100 31 -86 28 -463
107 -106 23 -192 37 -272 45 -30 3 -66 8 -80 10 -14 3 -54 7 -90 10 -100 8
-193 17 -215 22 -29 6 -389 5 -470 -1 -38 -3 -104 -8 -145 -12 -298 -22 -350
-28 -520 -61 -249 -47 -333 -74 -316 -102 16 -25 211 -87 306 -97 30 -3 73 -9
95 -13 l39 -6 -49 -29 c-170 -99 -166 -140 17 -181 36 -8 90 -18 120 -21 87
-9 92 -11 65 -38 -13 -13 -33 -28 -44 -34 -25 -14 -55 -75 -47 -95 7 -19 120
-54 204 -63 36 -4 68 -7 73 -6 15 4 5 -10 -33 -47 -22 -21 -40 -43 -40 -49 0
-41 112 -70 278 -72 l42 0 -24 -49 c-24 -46 -24 -50 -8 -63 10 -9 41 -16 76
-17 33 -1 62 -3 65 -3 3 -1 24 2 46 6 109 19 123 15 90 -28 -8 -11 -15 -35
-15 -53 0 -27 4 -33 23 -34 88 -5 196 13 309 51 127 44 148 47 148 26 0 -15
78 -58 92 -50 11 7 5 -26 -10 -53 -26 -47 -9 -93 34 -93 43 0 54 -9 43 -38 -6
-15 -8 -41 -4 -59 5 -31 9 -33 48 -34 23 -1 47 -2 52 -4 6 -1 13 -3 17 -3 4
-1 -8 -36 -27 -78 -59 -129 -43 -185 49 -178 l42 3 -22 -66 c-22 -67 -23 -131
-2 -144 6 -4 28 -10 49 -13 42 -7 50 -27 27 -69 -14 -27 -14 -108 1 -135 9
-17 20 -20 63 -18 29 2 56 1 59 -1 4 -1 3 -23 -2 -48 -15 -83 9 -100 119 -81
82 14 100 9 82 -23 -17 -32 -18 -154 -1 -174 20 -25 84 -21 139 8 69 37 73 35
68 -37 -4 -65 11 -108 37 -108 8 0 44 15 82 34 38 19 73 32 76 30 4 -2 5 -13
2 -24 -3 -12 0 -47 7 -79 11 -55 11 -61 -8 -87 -30 -42 -83 -180 -76 -198 3
-9 14 -16 24 -16 16 0 17 -4 7 -29 -8 -23 -8 -36 2 -54 17 -32 7 -66 -31 -98
-23 -19 -31 -36 -35 -72 -6 -50 -4 -49 -78 -51 -31 -1 -47 4 -70 25 -39 36
-69 47 -136 49 -114 4 -130 1 -168 -29 -33 -26 -37 -36 -40 -78 -2 -46 -24
-108 -42 -119 -5 -3 -107 -7 -226 -10 -434 -9 -439 -10 -463 -54 -20 -38 -2
-135 29 -155 7 -4 159 -9 339 -11 372 -4 347 2 357 -93 10 -97 18 -116 47
-119 20 -2 31 4 44 25 48 78 61 95 89 111 17 10 49 19 71 21 76 5 97 -43 110
-249 7 -114 10 -139 20 -149 3 -3 51 -5 106 -4 133 3 150 13 143 86 -20 208
-11 295 30 311 25 9 75 7 75 -4 0 -5 -9 -49 -21 -97 -21 -89 -20 -150 2 -164
11 -6 63 6 112 26 16 7 17 2 11 -61 -3 -38 -7 -78 -8 -89 -2 -11 1 -35 6 -53
11 -42 37 -42 113 -2 32 17 61 28 64 25 3 -4 5 -42 4 -86 -2 -69 -9 -98 -52
-212 -27 -73 -67 -167 -89 -209 -22 -43 -42 -87 -45 -99 -8 -29 10 -64 42 -80
14 -7 33 -19 41 -25 23 -19 113 -51 131 -47 19 5 77 128 134 281 l38 104 33
-7 c46 -8 70 10 140 105 32 44 61 80 65 80 12 0 21 -18 25 -53 6 -39 18 -75
54 -152 32 -70 50 -88 82 -83 28 4 48 42 93 176 17 53 36 97 42 99 5 2 22 -19
37 -47 51 -94 127 -148 160 -114 7 7 16 31 20 53 3 23 8 41 11 41 2 0 20 -10
40 -21 42 -25 156 -30 216 -10 77 25 90 75 51 198 l-20 62 39 -2 c21 -1 41 2
45 5 11 12 6 121 -9 193 -9 38 -14 71 -13 73 2 1 27 -9 57 -22 81 -36 95 -39
113 -21 24 24 9 108 -34 195 -34 69 -34 77 2 89 49 17 73 56 72 119 0 29 5 53
10 53 52 7 504 6 517 -1 9 -5 26 -31 39 -57 12 -26 32 -61 45 -77 25 -33 70
-213 81 -321 12 -126 33 -150 134 -154 58 -2 92 17 104 56 33 115 76 615 57
652 -6 10 -31 27 -56 36 -38 15 -68 17 -202 12 -87 -3 -252 -7 -368 -9 l-210
-3 -1 48 c-1 53 -20 81 -70 102 -37 15 -53 39 -49 75 2 14 4 37 4 52 1 14 13
41 28 58 25 31 26 32 10 66 -14 29 -15 35 -3 40 26 10 27 36 3 83 -14 25 -27
60 -31 76 -9 39 -40 75 -93 110 -48 31 -54 39 -19 25 55 -21 72 -4 87 85 6 41
15 75 18 75 4 0 26 -14 49 -31 23 -17 60 -33 81 -36 35 -5 39 -3 48 24 6 16 9
55 6 86 -2 32 0 57 5 57 5 0 39 -13 75 -30 35 -16 77 -31 91 -34 35 -6 67 24
60 56 -3 13 -7 34 -10 47 -3 14 -7 28 -9 31 -2 4 -7 21 -10 38 -5 28 -3 32 18
32 13 0 27 -4 32 -9 6 -5 34 -11 63 -14 73 -7 78 6 42 112 l-28 83 47 -8 c87
-14 106 -12 109 16 1 14 -9 58 -23 99 -14 41 -25 78 -25 82 0 4 16 3 35 -2 20
-6 50 -9 68 -7 31 3 32 4 29 46 -1 24 -12 67 -22 95 -11 29 -20 56 -20 60 0 5
17 8 38 6 99 -6 104 5 62 130 -16 50 -30 96 -30 102 0 8 16 9 50 5 50 -7 50
-7 50 21 -1 15 -5 47 -9 71 -5 23 -6 43 -2 43 3 1 25 3 49 4 24 2 46 6 49 9
13 12 3 69 -16 102 -23 39 -23 40 53 48 57 6 59 7 61 46 1 16 3 32 6 35 3 2
50 -8 104 -24 117 -34 266 -42 300 -17 18 13 18 18 7 48 -6 19 -12 36 -12 39
0 2 42 4 93 4 106 -1 170 13 175 38 2 9 -6 30 -17 46 -12 16 -21 33 -21 38 0
4 53 8 117 8 94 0 125 4 151 18 17 10 32 24 32 33 0 8 -23 37 -51 64 -27 26
-46 50 -42 53 8 5 71 14 215 32 58 7 78 14 78 27 0 21 -40 75 -80 107 -23 18
-39 35 -37 38 3 2 18 6 33 8 60 8 182 36 246 56 95 31 97 62 9 123 -23 16 -41
33 -41 38 0 12 86 49 188 82 127 40 169 66 156 99 -6 17 -164 55 -304 72 -25
3 -61 7 -80 10 -67 9 -115 14 -165 19 -27 3 -81 8 -120 12 -66 7 -224 12 -228
7z m348 -46 c88 -11 114 -19 130 -44 56 -85 -2 -152 -139 -159 -79 -4 -60 15
26 25 17 2 68 55 68 71 0 36 -33 61 -92 69 l-58 8 -25 -37 c-14 -21 -42 -46
-61 -56 -20 -11 -40 -29 -45 -41 -5 -13 -13 -23 -19 -23 -23 0 -7 26 50 83 33
33 60 64 60 68 0 18 -28 15 -70 -7 -25 -12 -102 -41 -172 -64 -158 -51 -188
-80 -98 -95 19 -3 42 -8 50 -10 15 -4 23 -6 139 -26 l64 -12 -39 -34 c-38 -34
-82 -58 -91 -49 -2 2 14 19 36 37 23 18 41 37 41 42 0 14 -97 -1 -175 -27
l-70 -24 -8 32 c-4 17 -26 47 -49 68 l-42 37 59 26 c113 50 144 92 93 125 -23
14 -23 15 12 20 41 6 367 4 425 -3z m-684 -23 c39 -35 8 -90 -61 -109 l-25 -7
28 29 c23 25 25 32 14 42 -11 8 -38 6 -117 -9 -56 -12 -122 -23 -147 -25 -40
-3 -43 -2 -31 13 30 39 93 66 183 79 22 3 42 7 44 9 11 10 94 -6 112 -22z
m-518 -43 c-27 -23 -92 -36 -106 -22 -14 14 38 36 90 39 l38 2 -22 -19z
m-4263 -7 c41 -4 87 -6 102 -5 21 1 45 -14 99 -64 52 -48 76 -64 90 -60 26 9
43 -3 29 -20 -8 -10 -3 -15 22 -24 47 -17 68 -40 68 -76 0 -42 49 -91 108
-109 45 -13 47 -14 48 -54 0 -24 8 -50 18 -61 15 -17 71 -38 119 -45 29 -4 40
-21 22 -36 -21 -17 -19 -72 4 -97 13 -14 38 -23 75 -27 37 -5 56 -12 56 -21 0
-8 -4 -17 -10 -20 -5 -3 -10 -23 -10 -44 0 -47 27 -77 83 -91 23 -6 53 -14 66
-19 l24 -7 -31 -23 c-30 -21 -62 -67 -62 -89 0 -23 43 -50 99 -62 65 -13 72
-21 43 -42 -38 -28 -64 -77 -59 -113 7 -50 19 -61 90 -76 34 -7 55 -15 46 -17
-21 -4 -51 -67 -59 -125 -6 -43 -4 -50 15 -63 12 -8 41 -16 64 -18 23 -2 45
-6 47 -9 2 -2 -5 -14 -16 -27 -11 -13 -23 -34 -26 -46 -6 -22 -10 -22 -88 -19
-77 3 -82 2 -93 -21 -9 -20 -7 -29 20 -64 17 -22 35 -40 39 -40 4 0 8 -4 8
-10 0 -20 -50 14 -70 48 l-20 34 -28 -17 -27 -18 20 24 c12 13 39 45 61 70 46
51 77 122 72 165 -3 29 -4 29 -65 29 -83 0 -97 14 -56 57 37 39 56 84 49 114
-6 24 -31 36 -86 40 -19 1 -45 6 -56 9 -19 6 -22 2 -26 -30 -2 -22 3 -52 14
-76 9 -22 13 -37 7 -33 -6 3 -19 26 -29 50 -11 24 -24 44 -30 44 -16 0 8 31
79 106 34 35 62 74 64 86 2 22 -1 23 -65 21 -38 -1 -68 2 -68 6 0 4 9 16 20
26 24 22 26 58 5 75 -13 10 -24 11 -56 1 -23 -7 -43 -10 -45 -8 -3 2 16 28 41
58 46 54 55 79 33 96 -13 9 -21 9 -85 0 -20 -3 -42 2 -59 14 -15 10 -32 15
-37 12 -4 -3 -11 4 -14 15 -4 16 -11 19 -34 17 -29 -4 -78 -17 -114 -30 -11
-4 11 14 49 41 81 57 95 76 77 98 -18 22 -57 20 -111 -5 -32 -15 -67 -22 -122
-23 -43 -1 -78 1 -78 5 0 4 16 13 35 19 20 7 57 26 83 44 26 17 66 37 88 44
53 15 70 34 49 52 -22 18 -94 15 -195 -8 -117 -27 -180 -35 -180 -23 0 5 21
17 48 26 148 54 210 97 178 124 -11 9 -34 7 -97 -9 -45 -12 -119 -24 -163 -26
-44 -3 -84 -7 -87 -10 -4 -2 -10 0 -14 6 -4 6 4 10 19 10 14 0 72 12 128 26
169 43 172 73 8 72 -72 -1 -104 4 -129 16 -41 22 -136 33 -145 17 -4 -6 -2
-20 5 -32 10 -20 9 -21 -17 -15 -33 8 -55 32 -48 51 8 20 100 44 194 50 174
12 222 24 200 50 -13 15 -90 40 -155 49 -38 6 -69 11 -125 20 -14 2 -37 9 -52
15 -25 9 -58 6 -58 -5 0 -3 7 -16 16 -29 19 -29 9 -33 -18 -8 -25 23 -23 45
10 75 31 29 50 38 72 33 8 -2 49 -7 90 -11z m-425 -11 c-28 -67 -14 -93 69
-133 61 -29 64 -31 53 -54 -7 -13 -15 -22 -19 -20 -10 7 -48 -52 -48 -75 0
-27 -6 -27 -48 7 -20 15 -45 32 -56 39 -12 7 -15 13 -8 14 6 1 15 2 20 4 4 1
21 5 37 10 17 4 38 12 48 17 18 9 18 11 1 29 -9 10 -23 19 -31 19 -31 0 -151
80 -171 114 -13 22 -17 36 -10 38 6 2 47 5 91 7 74 2 79 1 72 -16z m-256 -4
c-32 -12 -29 -36 7 -70 13 -12 24 -27 24 -33 0 -5 14 -24 31 -42 l30 -31 -26
-7 c-14 -4 -33 -2 -43 3 -10 6 -12 11 -4 11 25 0 11 24 -50 82 l-62 60 -69 -4
c-54 -3 -72 -8 -83 -23 -18 -25 -9 -74 17 -97 26 -22 24 -26 -10 -24 -33 2
-79 30 -88 52 -9 25 18 64 62 90 31 17 63 25 126 30 46 4 85 7 86 8 1 1 19 3
40 3 36 2 36 1 12 -8z m4606 -75 c-22 -29 -32 -35 -58 -32 -26 2 -33 8 -35 28
-3 23 2 27 55 40 32 8 60 12 61 7 2 -4 -8 -24 -23 -43z m125 26 c-20 -13 -50
-13 -50 0 0 6 15 10 33 10 24 0 28 -3 17 -10z m490 -55 c219 -11 231 -14 214
-62 -11 -32 -76 -73 -114 -72 l-25 0 25 10 c13 6 33 17 42 26 41 37 26 40
-189 37 -115 -2 -215 -3 -223 -3 -57 -3 198 -101 300 -116 57 -8 110 -33 110
-52 0 -8 -16 -21 -35 -29 -45 -19 -60 -18 -40 2 33 33 1 41 -185 47 -96 3
-181 6 -189 8 -7 2 -16 -2 -18 -8 -3 -8 31 -30 91 -58 94 -44 115 -51 191 -62
51 -7 75 -20 75 -38 0 -21 -44 -47 -87 -51 -32 -3 -34 -2 -15 6 15 6 22 18 22
36 0 24 -2 26 -33 20 -18 -3 -55 0 -82 8 -76 22 -261 41 -269 28 -10 -17 13
-34 120 -87 60 -31 97 -53 83 -50 -14 2 -61 5 -105 6 -43 0 -114 8 -158 16
-43 8 -80 12 -82 10 -20 -19 102 -98 240 -155 89 -37 106 -48 106 -68 0 -17
-48 -41 -78 -38 -26 2 -43 14 -20 14 8 0 23 9 34 21 24 27 18 30 -121 68 -165
46 -175 47 -175 25 0 -10 12 -31 28 -47 l27 -29 -87 5 c-69 4 -88 3 -88 -8 0
-7 30 -43 68 -80 l67 -67 -35 7 c-89 17 -110 18 -110 3 0 -8 23 -38 50 -67 28
-29 48 -57 45 -61 -3 -5 -43 4 -90 20 -46 17 -89 30 -95 30 -16 0 13 -47 50
-80 37 -34 104 -120 94 -120 -5 0 -25 5 -44 10 -19 6 -51 11 -70 12 -19 0 -41
6 -48 11 -8 6 -39 16 -70 22 -73 15 -82 38 -22 56 82 25 93 94 27 166 -19 22
-19 23 -1 29 88 28 124 54 124 88 0 12 -9 36 -21 55 -21 35 -20 43 9 47 143
21 188 61 136 124 -13 15 -24 31 -24 34 0 3 38 24 83 45 46 21 91 49 100 61
14 20 14 25 0 46 -15 23 -14 24 39 47 29 13 66 38 80 55 23 28 25 36 17 64 -5
18 -5 35 -1 39 4 4 40 21 81 37 61 24 81 27 115 21 22 -5 93 -11 156 -14z
m-4050 -17 c0 -6 -6 -5 -15 2 -8 7 -15 14 -15 16 0 2 7 1 15 -2 8 -4 15 -11
15 -16z m312 -5 c11 -44 -17 -57 -48 -22 -16 17 -16 22 -4 29 24 15 47 12 52
-7z m130 -7 c18 -26 -16 -34 -47 -10 -16 12 -17 16 -6 23 16 10 42 3 53 -13z
m2766 2 c17 -17 15 -29 -11 -60 -34 -42 -65 -40 -90 4 -22 37 -22 37 -2 52 24
18 86 21 103 4z m126 -27 c6 -10 -37 -31 -65 -31 -17 0 -18 3 -9 20 11 20 64
29 74 11z m-2729 -19 c14 -10 13 -72 -2 -72 -12 0 -53 47 -53 61 0 6 14 12 40
18 3 0 10 -3 15 -7z m4366 -8 c18 -11 8 -53 -19 -82 -43 -45 -120 -62 -225
-49 -56 7 -35 15 53 19 75 3 94 8 112 25 27 27 18 67 -20 88 -26 15 -25 15 32
10 32 -3 63 -8 67 -11z m-1951 -3 c0 -12 -29 -41 -40 -41 -19 0 -22 24 -5 37
22 15 45 17 45 4z m-2520 -32 c-5 -18 -12 -34 -14 -37 -10 -9 -37 8 -45 30 -7
20 -5 24 18 29 49 12 50 11 41 -22z m2988 9 c-5 -15 -66 -58 -82 -58 -13 1 63
70 76 70 6 0 8 -6 6 -12z m-4708 -25 c0 -2 -16 -11 -35 -19 -31 -12 -35 -19
-35 -50 0 -19 5 -44 10 -55 13 -23 -5 -26 -32 -5 -44 33 -39 98 9 121 20 11
83 16 83 8z m179 -64 c39 -49 55 -89 29 -73 -6 4 -40 35 -75 68 -54 51 -61 61
-46 67 26 9 46 -4 92 -62z m1291 25 c0 -9 -37 15 -51 33 -10 12 -5 11 19 -6
17 -12 32 -24 32 -27z m2698 10 c27 -6 29 -9 25 -43 -5 -38 -37 -81 -60 -81
-7 0 -18 11 -23 25 -5 13 -18 30 -28 36 -13 8 -18 19 -14 33 9 35 34 43 100
30z m-2110 -27 c10 -8 10 -13 -2 -26 -12 -13 -21 -41 -25 -83 -1 -5 -5 -8 -9
-8 -5 0 -17 27 -27 61 -16 52 -17 62 -4 70 15 9 46 3 67 -14z m2282 13 c0 -10
-95 -47 -98 -38 -6 14 17 37 41 40 34 5 57 4 57 -2z m1318 -6 c44 -19 206 -64
231 -64 9 0 42 -12 72 -27 80 -40 85 -53 38 -102 -36 -39 -62 -49 -126 -52
-67 -3 -213 32 -213 51 0 4 12 15 26 25 14 9 43 33 65 52 31 28 37 39 28 49
-16 19 -59 17 -90 -4 -15 -9 -45 -29 -67 -44 -22 -15 -52 -30 -66 -34 -15 -3
-31 -15 -36 -25 -12 -21 5 -32 97 -64 57 -20 57 -32 2 -60 -33 -17 -45 -8 -22
17 24 27 9 33 -48 19 -54 -14 -68 -8 -69 30 0 9 -11 28 -26 42 l-25 25 53 11
c69 15 132 51 136 78 2 13 -7 31 -24 46 -46 43 -8 62 64 31z m197 6 c3 -5 1
-10 -4 -10 -6 0 -11 5 -11 10 0 6 2 10 4 10 3 0 8 -4 11 -10z m-2901 -15 c155
-16 176 -21 176 -39 0 -25 40 -54 102 -75 47 -16 71 -30 92 -57 36 -45 39 -69
9 -68 -34 1 -28 -25 10 -41 22 -9 46 -34 75 -79 47 -74 48 -76 27 -76 -23 0
-18 -12 25 -57 34 -36 39 -47 34 -73 -4 -18 -2 -30 4 -30 8 0 74 -95 115 -167
5 -8 -7 -10 -45 -7 l-52 5 46 -45 c28 -26 59 -71 77 -111 17 -36 31 -68 31
-71 0 -2 -11 -4 -25 -4 -32 0 -32 -14 1 -62 32 -45 65 -139 54 -151 -11 -12
-60 16 -96 55 -17 18 -46 63 -64 101 -35 70 -46 72 -54 10 -15 -111 -30 -131
-71 -93 -33 31 -56 84 -57 130 -1 55 -15 59 -27 8 -15 -59 -55 -132 -75 -136
-21 -4 -54 67 -69 150 -7 32 -15 58 -18 58 -4 0 -17 -29 -29 -65 l-22 -65 -38
0 c-21 0 -42 5 -46 11 -4 6 -6 56 -6 110 0 55 -3 99 -7 99 -5 0 -14 -21 -22
-47 -18 -66 -41 -102 -90 -143 -66 -54 -71 -49 -53 64 7 48 7 48 -17 41 -13
-4 -27 -13 -31 -20 -4 -7 -22 -30 -40 -51 -18 -22 -42 -50 -53 -63 -45 -53
-85 -84 -85 -66 0 3 11 27 24 53 40 79 41 92 12 92 -13 0 -37 -5 -53 -11 -74
-29 -86 -15 -15 18 26 13 63 37 82 54 19 17 59 50 88 72 87 66 91 100 7 57
-22 -11 -53 -20 -70 -20 -27 0 -24 4 31 30 35 17 73 45 90 67 29 35 58 83 52
83 -2 0 -24 -7 -50 -15 -54 -16 -59 -12 -23 17 99 78 53 249 -74 274 -17 4
-34 10 -36 14 -7 12 71 40 110 40 40 0 43 5 16 28 -10 10 -26 36 -35 59 l-16
43 37 -6 c40 -6 83 11 83 33 0 8 5 11 10 8 7 -4 4 -19 -10 -42 -11 -20 -19
-37 -17 -40 18 -17 117 2 117 23 0 9 11 14 30 14 40 0 38 16 -5 34 -19 8 -68
38 -108 65 -71 50 -112 62 -149 46 -13 -5 -18 -3 -18 9 0 9 12 18 28 22 15 3
32 7 37 9 6 2 30 2 54 -1 24 -3 62 -7 85 -9z m-1029 -9 c12 -12 11 -16 -6 -27
-11 -8 -21 -23 -23 -33 -4 -28 -21 -31 -45 -7 -25 25 -27 57 -6 68 25 14 66
14 80 -1z m2095 -4 c0 -5 -7 -29 -15 -54 -13 -35 -21 -45 -37 -44 -36 2 -36
55 -1 83 28 23 53 30 53 15z m-1357 -47 c23 -15 106 -155 92 -155 -4 0 -20 9
-36 21 -16 11 -48 22 -71 24 -24 2 -61 9 -83 17 -35 12 -39 17 -43 50 -3 32 1
39 25 52 32 19 80 15 116 -9z m1897 -15 c8 -16 6 -22 -14 -36 -14 -8 -45 -18
-68 -21 -43 -4 -43 -4 -22 14 12 11 29 34 38 51 14 28 20 31 36 22 11 -6 24
-19 30 -30z m-4102 3 c-2 -5 -12 -25 -22 -47 l-17 -38 -27 25 c-25 24 -29 25
-59 12 -18 -8 -33 -20 -33 -27 0 -7 17 -29 37 -50 24 -25 32 -38 22 -38 -9 0
-26 12 -40 26 -37 39 -97 67 -131 60 -47 -9 -89 -44 -85 -69 10 -60 41 -76
141 -78 58 -1 59 -2 21 -9 -88 -17 -191 9 -222 57 -14 21 -13 24 18 53 32 29
114 60 158 60 12 0 38 7 59 15 20 9 52 18 72 21 19 3 46 12 60 20 27 15 54 18
48 7z m1211 -33 l38 -40 -36 0 c-20 0 -51 9 -70 21 -32 19 -33 21 -16 40 26
28 41 24 84 -21z m526 24 c33 -21 32 -36 -1 -32 -17 2 -30 11 -35 26 -10 26 2
29 36 6z m-1476 -26 c12 -34 -2 -37 -39 -8 -19 15 -22 22 -12 28 24 16 41 9
51 -20z m3105 -66 c-1 -9 -6 -38 -9 -64 -7 -53 -21 -63 -31 -20 -4 15 -15 36
-25 47 -20 22 -16 33 20 58 28 19 51 8 45 -21z m-1546 5 c3 -12 -7 -22 -32
-32 -19 -8 -38 -24 -41 -35 -5 -16 -10 -18 -19 -11 -11 9 -13 31 -7 73 1 9 61
27 81 25 8 -1 16 -10 18 -20z m1708 11 c2 -3 1 -34 -3 -70 -5 -54 -9 -67 -25
-71 -14 -4 -22 2 -29 19 -5 14 -9 30 -9 35 0 6 -13 15 -30 20 -32 12 -33 13
-24 46 4 16 15 23 38 25 35 4 76 1 82 -4z m124 3 c0 -12 -63 -61 -78 -61 -7 0
-10 10 -8 23 3 12 5 25 5 29 2 15 81 24 81 9z m-1970 -40 c0 -22 -6 -31 -22
-37 -13 -4 -26 -12 -30 -18 -9 -14 -58 32 -58 55 0 19 14 24 73 27 35 2 37 0
37 -27z m-1303 -9 c-12 -13 -13 -22 -5 -35 14 -27 3 -32 -27 -13 -43 28 -29
49 44 65 2 1 -3 -7 -12 -17z m1525 -14 c15 -17 28 -35 28 -40 0 -4 0 -10 0
-13 0 -3 -2 -5 -5 -6 -2 0 -18 -4 -35 -9 -32 -9 -32 -9 -32 55 0 56 4 57 44
13z m2070 -8 c10 -15 16 -33 13 -42 -10 -26 -68 -52 -99 -44 l-27 7 21 26 c11
14 20 36 20 48 0 12 3 25 7 29 13 13 46 1 65 -24z m-2702 -5 c0 -12 44 -55 86
-83 16 -11 12 -12 -33 -8 -89 7 -140 61 -92 97 25 18 39 17 39 -6z m-1320 -36
c0 -6 -4 -7 -10 -4 -5 3 -10 11 -10 16 0 6 5 7 10 4 6 -3 10 -11 10 -16z
m1780 -9 c0 -5 -4 -10 -10 -10 -5 0 -10 5 -10 10 0 6 5 10 10 10 6 0 10 -4 10
-10z m-1627 -22 c8 -29 5 -31 -27 -18 -15 5 -32 8 -37 4 -13 -8 -11 -38 4 -53
6 -6 -10 -3 -36 9 -57 25 -90 21 -138 -19 -33 -28 -33 -28 -16 -55 16 -24 39
-31 96 -29 29 2 -6 -15 -43 -20 -43 -6 -123 23 -132 47 -13 33 68 82 171 104
28 6 68 20 90 31 51 26 61 26 68 -1z m5252 6 c46 -21 52 -44 21 -71 -35 -29
-100 -38 -186 -23 -88 15 -87 23 1 11 70 -9 94 -4 122 27 15 16 16 25 8 41
-20 36 -15 38 34 15z m-667 -9 c40 -8 41 -20 1 -40 -27 -15 -129 -30 -129 -20
0 3 14 11 30 20 18 10 30 23 30 36 0 15 5 19 18 15 9 -2 32 -7 50 -11z m-1463
-15 c9 -14 13 -39 16 -96 3 -47 2 -49 -21 -46 -34 4 -42 14 -42 57 0 61 29
114 47 85z m123 -22 c6 -6 12 -32 12 -59 l0 -48 -45 43 c-25 25 -45 53 -45 64
0 17 5 19 33 15 17 -3 38 -10 45 -15z m1587 -5 c30 -34 30 -39 5 -46 -21 -5
-30 3 -48 46 -10 23 -9 27 4 27 8 0 26 -12 39 -27z m-4422 -3 c-6 -24 13 -50
38 -50 10 0 21 -4 24 -10 11 -18 -51 -11 -73 9 -25 21 -28 41 -10 59 18 18 27
15 21 -8z m1430 -1 c4 -13 0 -22 -11 -26 -63 -20 -72 -27 -83 -64 -7 -21 -16
-36 -20 -33 -4 2 -1 23 7 46 7 22 14 48 14 58 0 36 84 54 93 19z m3147 7 c0
-17 -14 -29 -23 -20 -8 8 3 34 14 34 5 0 9 -6 9 -14z m-3283 -20 c12 -11 -12
-27 -34 -23 -16 3 -28 -2 -37 -15 -12 -16 -15 -17 -26 -3 -23 28 20 56 74 48
10 -1 21 -4 23 -7z m1693 1 c0 -7 -6 -22 -14 -32 -13 -18 -14 -18 -46 1 -52
30 -50 44 9 44 35 0 51 -4 51 -13z m-3222 -24 c-7 -16 -21 -41 -31 -56 -10
-15 -16 -35 -13 -44 6 -14 4 -14 -16 -1 -32 22 -33 35 -1 63 15 14 37 35 47
46 26 25 28 24 14 -8z m3581 -15 c19 -29 19 -32 3 -54 -19 -26 -58 -42 -85
-36 -16 3 -16 5 3 29 11 14 20 34 20 44 0 55 31 65 59 17z m-1853 -65 c-3 -7
-13 -13 -21 -13 -13 0 -15 6 -10 31 4 17 9 39 10 48 6 28 7 27 16 -14 5 -21 7
-45 5 -52z m-594 59 c7 -10 30 -30 51 -44 21 -14 35 -28 30 -30 -7 -4 -15 -4
-68 0 -12 1 -36 15 -54 30 -32 26 -33 29 -17 45 22 22 42 22 58 -1z m3628 2
c0 -2 -9 -4 -21 -4 -11 0 -18 4 -14 10 5 8 35 3 35 -6z m112 -74 c-8 -55 -50
-72 -144 -57 -26 5 -50 12 -53 17 -3 4 11 4 31 0 65 -15 107 6 118 60 5 27 8
29 29 19 18 -8 22 -17 19 -39z m-1662 -14 c0 -29 -22 -39 -46 -21 -15 11 -16
15 -5 29 21 25 51 20 51 -8z m-2833 -26 c10 -26 9 -30 -6 -30 -27 0 -42 20
-30 42 14 26 23 23 36 -12z m3692 4 c-12 -15 -49 -19 -49 -6 0 16 22 30 41 25
15 -4 17 -8 8 -19z m-2612 -21 c-9 -9 -17 -11 -21 -5 -3 6 2 18 11 28 12 12
18 13 21 4 2 -6 -2 -19 -11 -27z m1656 -10 c15 -51 7 -65 -22 -39 -10 9 -23
16 -29 16 -6 0 -18 10 -27 23 -15 21 -14 23 12 34 45 19 52 16 66 -34z m-2980
-5 c-14 -28 -14 -32 4 -56 12 -16 36 -30 62 -37 34 -8 40 -12 30 -22 -17 -17
-38 -16 -45 2 -4 8 -10 15 -15 15 -5 0 -28 14 -53 31 l-44 32 29 25 c17 13 28
31 25 38 -3 8 0 11 8 8 11 -4 11 -11 -1 -36z m2863 -7 c21 -44 25 -76 9 -76
-9 0 -75 104 -75 118 0 5 10 7 23 5 15 -2 29 -17 43 -47z m-3194 -8 c6 -7 31
-13 57 -13 29 0 41 -3 33 -9 -31 -19 -152 7 -152 34 0 6 10 17 23 22 17 8 23
7 26 -6 2 -9 8 -22 13 -28z m788 27 c0 -5 -2 -10 -4 -10 -3 0 -8 5 -11 10 -3
6 -1 10 4 10 6 0 11 -4 11 -10z m1028 -7 c-2 -12 -14 -18 -41 -18 -23 -1 -46
-10 -61 -24 -32 -30 -44 -10 -16 29 19 26 27 30 71 30 42 0 50 -3 47 -17z m71
-15 c-12 -18 -24 -35 -26 -37 -2 -2 -3 5 -3 17 0 21 24 52 41 52 6 0 0 -15
-12 -32z m1764 2 c19 0 57 -43 57 -66 0 -27 -15 -39 -57 -47 l-33 -6 5 62 c6
83 6 84 12 70 2 -7 10 -13 16 -13z m-2217 -60 l31 -60 -24 0 c-27 0 -83 50
-83 74 0 15 26 46 38 46 4 0 21 -27 38 -60z m2989 22 c13 -34 -34 -46 -100
-25 -18 6 -18 7 5 13 15 3 26 14 28 27 3 19 6 20 32 12 16 -6 31 -18 35 -27z
m455 -12 c0 -11 -8 -23 -17 -29 -30 -15 -113 -18 -113 -3 0 5 12 7 28 5 40 -6
82 13 82 37 0 12 5 18 10 15 6 -3 10 -15 10 -25z m-1446 -22 c4 -16 2 -28 -3
-28 -15 0 -33 40 -26 57 7 20 20 7 29 -29z m-2750 2 c11 -24 12 -30 1 -30 -19
0 -36 25 -29 44 8 22 10 21 28 -14z m2700 -51 c19 -27 25 -44 19 -50 -17 -17
-81 1 -97 26 -15 22 -14 25 12 44 15 11 29 20 32 20 3 1 18 -18 34 -40z m840
33 c2 -4 -4 -9 -15 -9 -11 -1 -17 2 -14 8 7 11 22 12 29 1z m-2526 -22 c29
-24 25 -43 -9 -45 -13 -1 -36 -5 -51 -10 -23 -6 -28 -4 -28 11 0 24 10 38 35
52 26 15 26 15 53 -8z m-1503 -18 c-8 -8 -25 10 -19 20 4 6 9 5 15 -3 4 -7 6
-15 4 -17z m3075 -43 c12 -23 19 -43 17 -46 -6 -5 -57 67 -57 79 0 21 22 3 40
-33z m-2930 25 c0 -11 -50 -22 -71 -16 l-24 6 23 5 c30 8 72 10 72 5z m4013
-34 c8 -29 -31 -47 -64 -30 -22 13 -23 13 -3 20 11 4 26 15 33 24 16 19 27 14
34 -14z m-2555 2 c2 -7 -11 -27 -29 -44 -39 -40 -50 -24 -19 27 22 35 40 41
48 17z m-1040 -45 c14 -16 14 -19 2 -27 -20 -13 -23 -12 -45 4 -18 13 -18 14
0 42 13 21 20 25 23 14 3 -8 12 -23 20 -33z m3397 24 c3 -5 1 -12 -5 -16 -5
-3 -10 1 -10 9 0 18 6 21 15 7z m-497 -18 c42 -36 35 -93 -13 -107 -19 -5 -20
-1 -20 59 0 36 3 65 6 65 4 0 16 -8 27 -17z m-2210 -40 c1 -25 7 -52 12 -59 8
-8 6 -13 -5 -18 -22 -8 -65 37 -65 67 0 26 22 52 33 40 4 -3 7 -1 7 5 0 7 3
12 8 12 4 0 8 -21 10 -47z m2004 12 c2 -20 0 -35 -7 -36 -5 0 -19 -2 -30 -4
-20 -4 -45 11 -45 26 0 9 59 49 71 49 4 0 9 -16 11 -35z m-2515 10 c9 -25 -4
-29 -17 -6 -7 15 -7 21 0 21 6 0 13 -7 17 -15z m684 -11 c19 -17 15 -44 -6
-44 -13 0 -25 21 -25 46 0 18 9 18 31 -2z m1759 -106 c0 -14 -14 -8 -49 21
-26 21 -32 33 -27 47 7 17 11 15 42 -20 19 -22 34 -43 34 -48z m-1646 56 c28
-11 0 -44 -37 -44 -18 0 -38 -5 -45 -12 -8 -8 -12 -8 -12 -1 0 15 50 63 66 63
7 0 19 -3 28 -6z m2556 -38 c0 -25 -25 -37 -45 -22 -17 12 -17 14 5 29 25 17
40 14 40 -7z m-3469 -36 c10 0 19 -5 19 -11 0 -6 -16 -9 -37 -7 -41 3 -55 27
-32 55 12 13 14 12 22 -11 5 -16 16 -26 28 -26z m3077 -30 c32 -41 105 -121
161 -177 100 -101 101 -102 97 -144 -2 -23 -9 -45 -16 -49 -17 -10 -81 8 -110
31 -21 17 -22 19 -3 10 29 -15 68 -14 80 2 17 23 8 56 -30 107 -40 53 -59 60
-89 33 -24 -21 -36 -9 -15 15 33 37 18 48 -98 77 -140 34 -154 39 -166 63 -15
27 -1 42 39 42 34 0 62 18 73 47 5 14 11 24 13 22 2 -2 31 -38 64 -79z m202
50 c12 -8 12 -10 -5 -10 -11 0 -31 -9 -45 -20 -14 -11 -30 -20 -36 -20 -7 0
-15 -8 -18 -17 -5 -13 -9 -14 -19 -3 -7 8 -8 14 -2 16 6 2 30 18 55 34 51 34
49 33 70 20z m-2470 -71 c0 -5 -7 -9 -15 -9 -8 0 -15 7 -15 15 0 9 6 12 15 9
8 -4 15 -10 15 -15z m1800 -8 c13 -25 1 -33 -39 -25 -29 6 -40 22 -24 37 13
14 53 6 63 -12z m210 -49 c0 -25 -12 -40 -43 -51 -31 -12 -31 -12 -13 23 7 15
13 43 11 63 l-2 37 23 -28 c13 -15 24 -35 24 -44z m580 -2 c20 -39 27 -89 13
-91 -5 0 -19 -2 -32 -5 -28 -5 -102 30 -133 64 l-23 24 40 -19 c65 -32 111
-12 102 44 -7 42 7 35 33 -17z m-2474 9 c9 -10 15 -19 13 -20 -2 0 -15 -2 -29
-5 -14 -2 -35 -9 -47 -15 -27 -15 -55 -5 -47 16 7 18 46 40 73 42 11 1 27 -7
37 -18z m-267 -59 c0 -11 -5 -8 -19 8 -10 13 -16 30 -13 39 5 12 8 11 19 -8 7
-13 13 -31 13 -39z m1850 36 c12 -13 18 -26 13 -30 -12 -7 -52 22 -52 40 0 21
13 17 39 -10z m-1254 -13 c-3 -16 -15 -46 -26 -69 -24 -51 -17 -78 19 -69 38
9 106 62 152 116 23 27 46 49 52 49 7 0 7 -4 -1 -14 -6 -7 -10 -34 -10 -60 3
-54 23 -62 61 -23 37 38 114 97 127 97 6 0 11 -9 11 -19 0 -23 -31 -46 -125
-90 -38 -18 -83 -40 -100 -48 -48 -24 -201 -72 -246 -78 -22 -3 -51 -8 -63
-11 -21 -5 -22 -2 -18 27 6 43 71 138 124 183 24 19 45 36 47 36 2 0 0 -12 -4
-27z m-1233 -5 c-7 -7 -12 -8 -12 -2 0 14 12 26 19 19 2 -3 -1 -11 -7 -17z m8
-31 c0 -17 29 -44 53 -48 28 -6 22 -23 -13 -33 -23 -7 -35 -6 -46 5 -17 18
-25 54 -17 74 7 19 23 20 23 2z m966 -8 c10 -17 -12 -32 -36 -24 -17 5 -19 10
-9 21 14 17 35 18 45 3z m1995 -27 c8 -15 42 -62 76 -104 35 -43 58 -78 53
-78 -5 0 -18 -10 -29 -22 -12 -12 -38 -27 -58 -34 l-38 -13 35 30 c19 16 38
29 42 29 4 0 8 7 8 16 0 20 -51 40 -125 49 -33 3 -70 9 -82 12 -18 4 -22 1
-18 -16 3 -19 55 -101 80 -127 42 -45 162 -181 173 -195 7 -10 20 -35 28 -54
14 -35 14 -37 -16 -66 -24 -25 -36 -30 -57 -24 -26 6 -93 52 -93 64 0 3 24 6
52 6 l53 0 3 35 c3 41 -28 97 -60 109 -14 5 -31 3 -47 -6 -31 -16 -51 -17 -51
-3 0 6 13 13 29 16 23 5 29 11 26 26 -6 27 -23 46 -58 64 -31 16 -104 17 -124
1 -21 -16 -15 -61 17 -123 16 -32 30 -60 30 -61 0 -6 -27 -2 -62 7 -31 9 -36
14 -32 33 2 13 -5 53 -16 91 -21 76 -23 73 59 80 29 2 57 9 61 16 11 17 5 77
-13 127 l-15 43 37 5 c60 9 86 27 88 60 2 45 2 45 17 39 7 -3 19 -17 27 -32z
m-2699 -58 c13 -15 16 -24 8 -29 -13 -8 -37 10 -45 35 -3 11 -15 22 -26 25
-20 7 -20 7 2 32 l24 24 8 -33 c5 -18 18 -43 29 -54z m1734 34 c15 -29 15 -30
-1 -24 -9 3 -23 6 -31 6 -20 0 -29 27 -14 45 15 18 26 12 46 -27z m179 3 c13
-22 34 -49 47 -60 l22 -21 -34 4 c-19 3 -44 5 -55 5 -44 2 -50 15 -31 65 10
25 19 46 22 46 2 0 15 -18 29 -39z m-1195 -21 c0 -5 -20 -9 -44 -8 -24 0 -49
-2 -54 -6 -6 -3 -13 -2 -16 3 -7 11 20 18 77 20 20 0 37 -3 37 -9z m1449 -6
c2 -2 2 -7 -2 -10 -9 -9 -57 4 -57 16 0 8 49 4 59 -6z m255 -21 c9 -21 -22
-64 -58 -81 -35 -17 -46 -8 -19 15 11 10 28 33 37 51 18 36 31 40 40 15z
m-974 -75 c12 -37 27 -71 33 -75 6 -4 47 -8 89 -8 43 -1 80 -4 83 -7 3 -2 -17
-19 -44 -37 -28 -17 -59 -47 -70 -65 l-21 -33 22 -72 c11 -39 18 -74 15 -77
-3 -4 -32 15 -65 40 -32 25 -65 46 -74 46 -8 0 -31 -14 -49 -30 -19 -17 -47
-40 -62 -51 l-28 -21 7 29 c3 15 13 51 21 80 17 61 11 77 -41 116 -45 35 -66
56 -66 68 0 5 33 9 74 9 47 0 77 5 83 13 6 6 20 45 32 86 12 40 26 70 30 65 5
-5 18 -39 31 -76z m-991 -15 l34 -23 -29 0 c-16 0 -34 4 -40 8 -19 12 -34 50
-28 67 6 14 8 13 18 -7 6 -12 27 -33 45 -45z m280 37 c-22 -14 -34 2 -13 17
13 10 20 10 23 2 2 -6 -3 -15 -10 -19z m-914 -41 c-5 -30 -2 -44 7 -50 20 -13
58 -11 58 4 0 8 4 7 10 -3 9 -13 12 -12 25 4 8 11 15 26 15 33 0 7 5 13 10 13
13 0 13 -16 0 -40 -13 -25 -93 -60 -119 -53 -12 3 -21 6 -21 7 -10 33 -9 84 1
102 18 34 21 30 14 -17z m105 -3 c0 -2 -7 -9 -15 -16 -13 -11 -14 -10 -9 4 5
14 24 23 24 12z m994 -156 c10 -21 19 -25 60 -27 26 -1 50 -4 53 -7 5 -4 -13
-22 -50 -49 -24 -17 -27 -43 -12 -94 7 -23 10 -44 7 -47 -3 -3 -19 5 -36 17
-50 38 -62 38 -102 6 -20 -16 -40 -29 -44 -29 -5 0 -2 20 6 45 16 55 11 70
-35 112 -20 18 -31 33 -26 34 6 1 26 2 46 3 49 2 65 18 80 79 l12 52 15 -35
c7 -19 19 -46 26 -60z m1046 35 c17 -39 24 -45 50 -46 16 -1 35 -3 40 -4 6 -1
15 -3 20 -4 18 -2 10 -16 -21 -36 -45 -30 -51 -46 -33 -99 9 -26 14 -49 11
-52 -3 -3 -23 6 -44 20 -47 32 -58 32 -100 0 -19 -14 -36 -24 -39 -22 -2 3 1
28 7 55 l12 50 -42 38 c-23 21 -39 40 -36 43 2 3 17 6 32 7 16 1 38 3 50 3 16
2 26 14 39 47 9 25 21 45 26 45 5 0 17 -20 28 -45z m-2002 14 c-9 -5 -26 -24
-37 -43 -18 -28 -19 -38 -10 -65 6 -17 14 -31 17 -32 4 0 20 -3 35 -5 16 -3
41 2 58 10 16 8 29 10 29 5 0 -13 -78 -48 -106 -49 -32 0 -75 47 -69 78 8 46
79 132 95 115 3 -2 -3 -9 -12 -14z m2341 -50 c-18 -11 -24 12 -13 49 l7 27 10
-33 c8 -27 7 -36 -4 -43z m621 49 c26 -29 25 -54 -4 -83 -26 -26 -47 -25 -103
3 -43 22 -42 28 6 24 56 -5 84 12 79 49 -5 35 -4 35 22 7z m-2600 -4 c36 -3
67 -8 70 -10 9 -9 -29 -59 -57 -76 -16 -9 -49 -19 -75 -22 -58 -5 -71 -12 -59
-34 17 -34 -1 -44 -21 -12 -13 22 -24 30 -35 26 -8 -4 -1 10 16 30 18 19 39
54 48 75 11 30 20 39 32 34 8 -3 45 -9 81 -11z m230 -59 c21 -22 22 -25 5 -25
-26 0 -65 39 -65 65 0 33 14 39 25 11 6 -14 21 -37 35 -51z m-459 -127 c-45
-61 -38 -128 14 -128 34 0 39 -15 9 -29 -50 -22 -92 -7 -106 39 -6 18 32 82
75 128 42 44 45 40 8 -10z m524 12 c-3 -10 -8 -29 -10 -42 -3 -12 -19 -49 -36
-81 -20 -38 -29 -68 -26 -84 6 -31 -17 -42 -42 -19 -10 9 -23 16 -29 16 -7 0
-12 3 -12 6 0 16 95 182 117 206 28 29 48 28 38 -2z m1671 4 c56 -27 68 -42
123 -149 l31 -59 -43 -13 c-44 -14 -92 -9 -82 7 4 6 22 17 41 25 49 20 41 44
-26 78 -40 20 -64 41 -87 76 -44 68 -37 74 43 35z m-1861 -22 l40 -7 -53 -22
c-28 -12 -53 -27 -53 -32 -1 -6 -2 -17 -3 -23 -1 -7 2 -19 7 -25 14 -20 -18
-16 -34 3 -7 9 -21 19 -30 23 -15 5 -12 12 18 49 38 44 43 45 108 34z m2155
-42 c0 -5 0 -13 0 -17 0 -11 -100 -39 -100 -29 0 6 82 56 93 56 4 0 7 -4 7
-10z m-2328 -87 c-11 -16 -26 -48 -33 -72 -12 -41 -12 -45 10 -62 16 -13 33
-17 55 -14 29 5 30 4 12 -10 -29 -22 -64 -18 -91 9 -32 32 -24 68 32 144 29
39 42 43 15 5z m2434 -67 c13 -74 -38 -98 -108 -50 -21 15 -38 28 -38 31 0 2
17 2 38 0 44 -5 72 7 72 32 0 44 27 35 36 -13z m-994 23 l107 -3 -30 -35 c-16
-20 -29 -42 -29 -51 0 -24 38 -80 54 -80 8 0 17 -4 20 -8 3 -5 -18 -10 -47
-11 -103 -3 -163 -13 -250 -43 -92 -32 -119 -32 -192 -5 -22 8 -65 18 -95 21
-90 11 -381 15 -445 7 -61 -8 -89 -4 -92 14 -9 57 -13 145 -7 145 5 0 19 3 31
6 21 6 21 4 11 -24 -18 -47 0 -93 44 -115 35 -17 39 -17 62 -1 38 24 53 82 32
122 -18 36 -19 35 74 46 37 4 41 3 23 -6 -40 -20 -50 -102 -17 -139 31 -34 96
-23 118 20 19 37 10 82 -22 108 -15 13 -25 23 -22 24 3 0 32 3 65 5 33 3 61 7
62 8 3 3 390 0 545 -5z m288 -16 c3 -2 -3 -9 -12 -14 -9 -5 -19 -28 -23 -50
-6 -34 -3 -47 15 -71 l21 -29 -60 2 c-34 1 -61 6 -61 11 0 4 4 8 9 8 5 0 16
17 24 37 15 39 7 79 -20 96 -25 15 -4 24 49 19 29 -2 55 -6 58 -9z m237 -15
c-3 -8 -6 -5 -6 6 -1 11 2 17 5 13 3 -3 4 -12 1 -19z m-77 3 c13 -1 14 -12 9
-68 -3 -38 -5 -76 -3 -86 3 -16 -2 -18 -39 -13 -23 3 -48 5 -54 5 -20 1 -15
19 6 26 32 10 43 57 26 122 -5 20 -2 22 17 19 13 -3 30 -5 38 -5z m-90 -51 c7
-13 5 -24 -9 -41 -19 -23 -19 -24 -40 -5 -25 23 -26 34 -5 57 18 20 40 15 54
-11z m-1020 5 c27 -32 -25 -80 -57 -53 -15 12 -17 40 -3 54 15 15 47 14 60 -1z
m826 -11 c4 -17 2 -29 -7 -35 -26 -16 -48 -10 -55 15 -8 32 2 46 31 46 18 0
26 -7 31 -26z m-1022 -17 c12 -48 -47 -66 -65 -20 -8 22 -7 30 6 39 22 16 52
7 59 -19z m1677 -33 c6 -32 -27 -74 -59 -74 -32 0 -76 27 -100 61 l-16 23 36
-22 c62 -38 112 -21 110 38 -1 30 0 31 13 14 7 -11 15 -29 16 -40z m-2115 -4
c-8 -69 36 -89 104 -49 l35 21 -40 -41 c-45 -48 -85 -54 -109 -19 -19 27 -20
50 -4 95 16 44 20 42 14 -7z m1934 -95 c0 -27 -27 -65 -46 -65 -21 0 -74 29
-74 40 0 5 14 8 31 8 38 -1 51 17 44 62 l-5 35 25 -30 c14 -16 25 -39 25 -50z
m-395 15 c3 -5 7 -127 8 -269 2 -249 1 -260 -19 -288 -11 -15 -29 -44 -39 -63
-19 -35 -19 -35 -25 -10 -8 33 -13 618 -5 630 8 13 72 13 80 0z m-107 -152 c3
-319 3 -464 3 -501 -1 -29 -9 -46 -37 -74 -21 -21 -39 -31 -43 -25 -3 5 -7
177 -9 381 l-4 371 45 0 44 0 1 -152z m229 138 c4 -5 6 -67 6 -136 -1 -120 -3
-131 -33 -201 -43 -99 -50 -104 -51 -38 -1 29 -3 124 -5 209 -2 85 -1 161 1
168 5 15 73 13 82 -2z m-356 -3 c2 -13 8 -355 10 -568 1 -162 -2 -207 -14
-237 -18 -42 -49 -51 -66 -20 -5 10 -10 168 -11 372 -1 195 -2 369 -2 385 -2
54 2 64 25 68 38 7 57 7 58 0z m-1126 -24 c-4 -5 5 -20 19 -34 l26 -26 -25
-11 c-30 -14 -55 -4 -55 21 0 31 19 73 30 66 6 -4 8 -11 5 -16z m293 8 c9 -7
12 -65 11 -236 0 -248 0 -246 -54 -141 -30 60 -35 87 -36 205 -2 165 -1 173
19 177 30 7 47 6 60 -5z m119 -42 c9 -172 7 -585 -2 -585 -5 0 -23 21 -39 46
l-29 46 -5 258 c-3 142 -2 266 2 275 4 11 15 15 38 13 32 -3 33 -4 35 -53z
m120 43 c13 -18 16 -788 3 -788 -19 0 -69 65 -75 95 -7 37 -13 694 -6 700 10
10 69 4 78 -7z m108 -10 c6 -5 11 -124 13 -306 1 -163 3 -301 3 -307 1 -5 1
-56 0 -112 l-1 -103 -35 0 c-26 0 -35 4 -36 18 -9 128 -18 788 -11 814 3 14
11 16 31 12 14 -4 31 -11 36 -16z m912 5 c-3 -10 -8 -31 -12 -47 -7 -34 -16
-28 -21 15 -4 36 1 49 22 49 10 0 14 -6 11 -17z m-1376 -25 c1 -18 2 -54 3
-81 2 -45 -10 -52 -18 -11 -3 10 -9 38 -14 61 -7 28 -6 45 1 52 19 19 27 12
28 -21z m837 -389 c2 -262 -1 -395 -8 -404 -11 -13 -57 -12 -71 2 -4 4 -10
182 -13 395 -5 416 -8 397 49 415 23 8 31 7 35 -4 3 -7 7 -189 8 -404z m-245
372 c2 -9 5 -72 5 -141 1 -69 4 -233 6 -365 1 -133 -1 -251 -5 -263 -11 -29
-74 -32 -81 -4 -7 25 -10 791 -3 801 8 14 73 -10 78 -28z m124 -3 c4 -7 8
-183 10 -390 2 -347 1 -378 -15 -387 -17 -8 -61 -6 -71 5 -7 7 -12 740 -5 758
3 8 18 17 32 19 15 2 30 5 34 6 4 0 10 -5 15 -11z m706 -132 c6 -16 -13 -58
-30 -63 -18 -6 -28 44 -13 62 16 19 36 19 43 1z m57 -111 c10 -12 10 -21 2
-40 -16 -34 -37 -31 -52 6 -11 26 -11 32 1 40 20 13 35 11 49 -6z m-130 -11
c0 -8 -5 -12 -10 -9 -6 4 -8 11 -5 16 9 14 15 11 15 -7z m260 -30 c0 -18 -26
-18 -33 0 -3 8 -3 16 0 19 9 10 33 -5 33 -19z m-1810 7 c0 -5 -7 -12 -16 -15
-14 -5 -15 -4 -4 9 14 17 20 19 20 6z m140 -31 c-8 -5 -17 -7 -19 -4 -3 3 1 9
9 14 8 5 17 7 19 4 3 -3 -1 -9 -9 -14z m1455 -40 c25 -9 25 -11 10 -39 -22
-43 -31 -45 -55 -11 -35 49 -14 73 45 50z m-1553 -10 c20 0 21 -1 3 -20 -18
-20 -44 -27 -46 -12 0 4 -2 15 -4 25 -2 13 1 17 12 13 8 -3 24 -6 35 -6z
m1718 1 c0 -5 -9 -19 -20 -32 l-20 -24 -20 24 c-29 34 -25 41 20 41 22 0 40
-4 40 -9z m-1580 -46 c-7 -8 -16 -15 -21 -15 -5 0 -9 7 -9 15 0 9 9 15 21 15
18 0 19 -2 9 -15z m-257 -23 c18 -20 14 -33 -9 -26 -47 14 -47 14 -34 29 16
19 23 19 43 -3z m1757 -27 c0 -5 -9 -21 -20 -35 l-20 -25 -20 24 c-15 18 -18
27 -9 37 12 15 69 14 69 -1z m132 -5 c-12 -35 -24 -41 -43 -24 -14 13 -16 20
-8 30 16 19 58 14 51 -6z m-1722 -10 l25 -1 -24 -19 c-35 -29 -51 -25 -51 12
0 25 3 29 12 20 7 -7 23 -12 38 -12z m1429 7 c8 -10 7 -19 -3 -33 -16 -21 -29
-13 -41 24 -5 17 -2 22 13 22 11 0 25 -6 31 -13z m-1299 -58 c0 -11 -4 -17
-10 -14 -5 3 -10 13 -10 21 0 8 5 14 10 14 6 0 10 -9 10 -21z m1181 -27 c-15
-29 -14 -58 5 -94 l16 -30 -40 4 c-74 9 -75 16 -16 97 35 50 57 64 35 23z
m336 -16 c8 -7 -10 -36 -22 -36 -16 0 -45 27 -45 42 0 9 57 4 67 -6z m-1594
-7 c33 2 34 -6 1 -43 -24 -27 -26 -28 -39 -10 -8 11 -15 22 -15 26 0 3 -3 14
-7 24 -5 14 -3 16 13 9 10 -4 31 -7 47 -6z m1447 -3 c0 -7 -7 -19 -16 -26 -12
-11 -18 -11 -31 2 -8 9 -12 21 -9 27 10 16 56 14 56 -3z m-1540 -67 c0 -18 -2
-19 -15 -9 -8 7 -15 16 -15 21 0 5 7 9 15 9 9 0 15 -9 15 -21z m364 -4 c21
-32 20 -45 -9 -77 -27 -31 -47 -35 -65 -13 -9 10 -9 15 -1 15 6 0 11 5 11 12
0 16 34 87 41 88 4 0 14 -11 23 -25z m1400 -27 c-3 -59 -3 -58 -11 -58 -14 1
-60 74 -56 88 3 6 19 12 37 12 32 0 33 -1 30 -42z m-134 18 c0 -22 -23 -56
-38 -56 -14 0 -42 35 -42 54 0 1 18 3 40 4 22 2 40 1 40 -2z m-1490 -26 c0 -5
-7 -10 -15 -10 -8 0 -15 5 -15 10 0 6 7 10 15 10 8 0 15 -4 15 -10z m-324 -26
c-9 -8 -16 -24 -16 -35 0 -19 -11 -25 -23 -13 -7 8 11 46 27 56 20 14 28 8 12
-8z m185 -21 c-5 -10 -16 -27 -25 -38 -15 -20 -15 -19 -16 6 0 27 16 49 37 49
10 0 11 -5 4 -17z m101 -28 c8 -19 8 -28 -2 -40 -16 -19 -20 -15 -27 27 -2 18
-9 35 -14 36 -5 2 -9 8 -9 13 0 17 41 -11 52 -36z m-622 -16 c0 -5 -4 -9 -10
-9 -5 0 -10 7 -10 16 0 8 5 12 10 9 6 -3 10 -10 10 -16z m375 -14 c2 -14 0
-25 -5 -25 -10 0 -21 41 -14 52 9 13 16 2 19 -27z m1770 11 c-11 -8 -18 -25
-17 -45 0 -21 -4 -31 -11 -28 -12 4 -17 41 -9 65 5 14 43 33 51 26 3 -2 -4
-10 -14 -18z m101 4 c7 -7 14 -22 14 -34 -1 -20 -1 -20 -15 -2 -8 10 -16 23
-17 27 -2 5 -15 10 -30 11 -16 1 -28 6 -28 11 0 11 58 1 76 -13z m-2336 -16
c0 -19 -56 -19 -63 0 -8 20 -1 23 33 18 17 -2 30 -10 30 -18z m858 1 c-8 -8
-68 -12 -68 -5 0 17 34 29 53 18 10 -5 17 -11 15 -13z m1596 16 c3 -5 -5 -11
-19 -13 -26 -5 -35 6 -12 15 19 8 25 8 31 -2z m-324 -16 c24 -29 -3 -36 -35
-10 l-30 24 26 1 c15 0 32 -7 39 -15z m-1491 -42 c0 -33 -1 -35 -9 -15 -8 20
-4 52 6 52 2 0 4 -17 3 -37z m1861 5 c0 -19 -16 -5 -17 14 -2 18 0 20 7 8 5
-8 10 -18 10 -22z m-203 6 c8 -21 -9 -95 -22 -94 -14 1 -36 70 -29 92 7 22 42
24 51 2z m-418 -24 c48 -24 73 -43 91 -71 13 -22 30 -39 37 -39 7 0 13 -10 14
-22 0 -13 2 -31 4 -40 2 -10 -3 -18 -11 -18 -7 0 -20 -13 -28 -29 -9 -16 -23
-32 -33 -36 -10 -5 -138 -9 -285 -11 -250 -2 -267 -3 -286 -22 -11 -11 -22
-26 -26 -33 -3 -8 -3 11 0 42 6 61 -6 82 -49 82 -36 0 -33 38 3 59 34 19 40
53 13 66 -22 10 -119 9 -150 -2 -26 -9 -30 -36 -9 -69 8 -12 17 -43 21 -69 8
-54 8 -53 -96 -63 -77 -7 -99 6 -100 58 -1 63 -9 100 -30 133 -15 25 -17 34
-7 35 7 1 47 3 88 4 41 1 147 5 235 9 88 3 237 8 331 12 93 3 179 7 190 9 10
2 23 4 27 4 5 1 7 7 4 14 -3 9 -34 11 -123 9 -65 -1 -114 1 -107 5 6 4 57 10
114 11 98 4 105 2 168 -28z m-1029 -10 c0 -12 -40 -33 -47 -26 -9 8 28 47 38
40 5 -3 9 -9 9 -14z m1243 -15 c16 -35 16 -35 -2 -26 -10 6 -21 18 -25 27 -18
46 5 46 27 -1z m357 26 c0 -5 -7 -14 -15 -21 -12 -10 -15 -10 -15 2 0 8 3 18
7 21 9 10 23 9 23 -2z m-2053 -7 c-3 -3 -12 -4 -19 -1 -8 3 -5 6 6 6 11 1 17
-2 13 -5z m1622 -26 c10 -27 2 -46 -10 -27 -10 15 -12 49 -4 49 3 0 9 -10 14
-22z m-1751 -24 c40 11 52 11 67 0 16 -12 23 -11 53 6 33 20 35 20 47 3 7 -10
12 -20 10 -23 -3 -4 -382 -5 -410 -1 -5 1 2 8 16 16 21 11 33 12 57 3 25 -10
37 -9 64 4 31 14 33 14 40 -3 6 -16 11 -16 56 -5z m279 12 c4 -7 15 -15 22
-18 13 -4 13 -5 0 -10 -23 -9 -59 9 -53 27 8 19 20 19 31 1z m-557 -3 c-1 -21
-19 -30 -63 -30 -26 0 -50 4 -53 8 -3 5 -4 9 -2 9 43 6 84 13 87 16 7 7 31 4
31 -3z m720 -13 c-20 -13 -33 -13 -25 0 3 6 14 10 23 10 15 0 15 -2 2 -10z
m2494 -11 c6 -5 11 -25 12 -44 l1 -35 -76 0 c-42 0 -81 4 -86 8 -14 9 -12 65
2 69 6 2 18 -6 27 -19 l16 -22 0 25 c0 14 3 28 6 32 8 8 87 -2 98 -14z m-990
-15 c9 -8 21 -25 27 -36 10 -19 8 -19 -65 -16 -43 2 -76 7 -76 13 1 6 12 9 25
7 19 -3 27 3 35 22 11 30 31 33 54 10z m516 4 c0 -8 -18 -10 -120 -13 -87 -2
-83 9 5 15 110 7 115 7 115 -2z m-390 -27 c0 -26 -20 -47 -33 -34 -8 7 13 63
24 63 5 0 9 -13 9 -29z m959 20 c9 -6 11 -18 6 -37 -4 -16 -9 -90 -11 -164 -2
-74 -7 -141 -9 -149 -4 -10 -14 -6 -36 17 -17 18 -37 32 -43 32 -7 0 -21 7
-32 15 -16 13 -16 14 -1 9 23 -8 46 12 40 36 -4 14 2 23 20 31 39 18 60 89 34
115 -9 9 -9 89 0 97 8 9 15 9 32 -2z m-2031 -10 c7 -1 11 -5 8 -9 -4 -7 -46
-9 -64 -3 -12 4 12 19 26 16 9 -2 23 -4 30 -4z m-311 -33 c5 -7 9 -39 8 -71
-3 -68 -21 -94 -74 -102 -20 -4 -49 -12 -66 -19 -34 -15 -56 -11 -49 8 7 17
-44 36 -78 29 -14 -3 -29 0 -33 7 -5 8 9 11 51 10 95 -3 138 0 131 7 -4 3 -22
8 -39 9 -86 9 -707 2 -911 -9 -21 -1 -42 2 -46 8 -15 19 -9 95 8 104 16 8 205
12 758 16 167 1 306 5 310 8 10 10 19 8 30 -5z m255 -52 c3 -14 1 -31 -3 -38
-6 -8 -9 1 -9 25 0 42 6 48 12 13z m1004 11 c3 -3 0 -18 -8 -34 -13 -27 -61
-53 -74 -40 -11 10 -12 61 -2 73 8 11 74 11 84 1z m871 -27 c-18 -26 -13 -179
7 -219 7 -14 16 -55 20 -91 3 -36 10 -83 16 -105 12 -52 12 -61 0 -49 -6 6
-20 53 -31 105 -11 52 -21 101 -23 109 -2 8 -9 49 -16 90 -16 90 -47 155 -67
139 -10 -9 -13 -8 -13 4 0 18 41 35 88 36 31 1 32 0 19 -19z m-3283 -13 c13
-21 7 -26 -42 -33 -34 -5 -42 -2 -52 15 -7 14 -21 21 -43 22 l-32 1 29 7 c53
11 130 5 140 -12z m-184 10 c-3 -3 -20 -7 -38 -10 -18 -3 -39 -11 -47 -17 -13
-10 -264 -15 -340 -6 -16 2 -34 4 -39 5 -5 1 -6 4 -3 8 4 3 80 8 169 10 90 2
163 5 165 6 1 1 32 4 70 5 37 2 65 1 63 -1z m2673 -53 c-8 -22 -23 -6 -23 24
1 25 2 26 15 9 7 -11 11 -25 8 -33z m57 1 c0 -8 -4 -17 -10 -20 -6 -4 -10 5
-10 20 0 15 4 24 10 20 6 -3 10 -12 10 -20z m810 6 c13 -25 -2 -36 -30 -21
-21 11 -25 22 -13 33 12 13 32 7 43 -12z m-1121 -38 c13 -42 13 -47 -4 -60
-11 -7 -44 -13 -77 -13 -60 0 -68 -5 -117 -69 -13 -17 -29 -25 -59 -27 -82 -5
-103 -14 -118 -50 -8 -18 -14 -55 -14 -82 0 -33 -5 -54 -16 -63 -14 -12 -15
-8 -9 44 6 48 4 62 -14 92 -11 20 -21 41 -21 46 0 5 -7 21 -16 34 l-16 25 -28
-37 c-26 -34 -32 -37 -88 -40 l-61 -4 2 80 c1 44 6 83 10 87 4 5 94 9 200 9
144 1 199 -2 220 -12 24 -12 28 -12 33 2 4 9 19 15 38 15 57 0 109 12 94 22
-10 6 -8 13 11 28 13 11 26 20 30 20 4 0 13 -21 20 -47z m-1789 6 c0 -4 -8
-12 -17 -18 -27 -15 -3 -33 38 -29 28 2 35 8 37 28 3 25 5 26 82 26 44 -1 80
-4 80 -8 0 -5 -29 -8 -64 -8 -47 0 -65 -4 -70 -15 -3 -8 2 -19 12 -24 21 -13
32 -12 -133 -16 -77 -3 -186 -7 -242 -10 l-101 -5 -11 32 c-9 24 -8 34 1 40
22 13 27 9 25 -19 -2 -30 17 -39 59 -29 17 5 23 12 21 28 -2 18 4 23 27 25 27
2 27 1 12 -16 -16 -17 -15 -19 24 -29 38 -9 42 -8 49 11 5 12 7 25 4 30 -2 4
8 7 23 7 25 0 26 -1 11 -12 -31 -24 -1 -42 62 -39 19 1 23 5 19 26 -4 17 0 25
11 28 27 5 41 4 41 -4z m342 -5 c-19 -13 -21 -18 -10 -31 10 -12 25 -14 68
-10 69 8 104 -8 39 -18 -71 -10 -242 -2 -246 12 -3 9 8 11 37 8 49 -5 88 11
71 28 -19 19 -12 27 26 27 37 0 37 0 15 -16z m692 1 c4 -10 -6 -17 -33 -25
-24 -6 -42 -19 -49 -35 -11 -24 -13 -24 -132 -22 -101 1 -123 4 -137 19 -14
16 -14 18 11 28 32 12 73 17 185 25 46 3 91 10 100 15 24 14 48 12 55 -5z
m959 -5 c3 -11 1 -18 -4 -14 -5 3 -9 12 -9 20 0 20 7 17 13 -6z m-8 -147 c4
-50 -23 -76 -64 -62 -52 18 -57 35 -22 68 26 25 31 36 31 78 l1 48 25 -48 c14
-27 27 -64 29 -84z m-1345 93 c0 -11 -19 -15 -25 -6 -3 5 1 10 9 10 9 0 16 -2
16 -4z m-970 -53 c0 -8 -8 -28 -17 -46 l-18 -32 -3 33 c-2 19 -1 39 1 46 7 17
37 16 37 -1z m800 -23 c34 -31 35 -60 3 -60 -26 0 -40 12 -51 40 -10 26 -6 50
8 50 4 0 22 -14 40 -30z m405 10 c3 -11 13 -20 21 -20 8 0 31 -16 53 -35 21
-19 46 -35 55 -35 13 0 16 -13 16 -84 0 -55 -4 -87 -12 -94 -20 -15 -166 -12
-238 5 -65 16 -81 26 -75 47 10 28 17 88 20 156 2 41 4 76 4 78 1 1 34 2 75 2
66 0 75 -2 81 -20z m171 3 c-11 -11 -45 -13 -51 -3 -4 6 7 10 26 10 18 0 29
-3 25 -7z m619 -43 c-14 -27 -25 -56 -25 -65 0 -15 25 -75 55 -135 l13 -25
-92 2 -91 1 -32 38 c-29 33 -33 35 -33 15 0 -12 11 -43 24 -69 13 -26 40 -91
61 -144 20 -54 49 -115 65 -136 38 -53 45 -78 24 -86 -22 -8 -26 -3 -54 69
-13 33 -38 92 -56 130 -75 164 -86 203 -82 275 2 38 6 71 9 74 2 3 27 8 54 12
84 11 88 12 126 54 50 55 65 51 34 -10z m-1079 -47 c-5 -50 9 -85 46 -111 39
-28 8 -79 -39 -61 -30 11 -44 41 -45 102 -1 36 4 63 17 85 11 17 21 32 22 32
2 0 1 -21 -1 -47z m476 15 c-9 -9 -15 -9 -24 0 -9 9 -7 12 12 12 19 0 21 -3
12 -12z m1848 -48 c0 -20 -2 -22 -10 -10 -5 8 -10 26 -10 40 0 20 2 22 10 10
5 -8 10 -26 10 -40z m110 -32 c-6 -42 -10 -80 -8 -84 3 -12 -20 -74 -28 -74
-5 0 -1 46 11 108 1 10 6 37 11 62 4 25 9 48 10 53 1 4 2 10 3 14 0 3 3 4 6 1
3 -3 1 -39 -5 -80z m-1923 43 c-11 -29 -27 -33 -27 -6 0 11 23 32 37 35 1 0
-4 -13 -10 -29z m738 -46 c15 -49 4 -87 -32 -106 -23 -13 -27 -11 -49 14 -30
36 -30 47 1 47 31 0 45 26 45 82 1 37 2 40 12 23 6 -10 17 -37 23 -60z m-647
-32 c16 3 41 -1 58 -7 l29 -13 -24 -12 c-27 -15 -70 -9 -106 15 -30 19 -34 39
-5 24 12 -6 33 -9 48 -7z m-1189 -60 c-1 -53 -6 -49 -11 10 -2 20 0 37 4 37 4
0 8 -21 7 -47z m1131 -19 c0 -6 -50 12 -50 19 -1 52 -1 52 25 17 14 -19 25
-35 25 -36z m-411 -18 c8 -9 8 -16 2 -20 -6 -4 -15 3 -21 14 -12 23 2 27 19 6z
m2205 -8 c-3 -5 -12 -4 -20 3 -19 16 -18 18 6 12 11 -3 17 -9 14 -15z m-2190
-60 c0 -27 -23 -106 -35 -123 -4 -6 -6 -27 -5 -47 3 -24 -1 -38 -10 -42 -7 -3
-11 -11 -8 -19 3 -8 -2 -20 -11 -27 -8 -7 -15 -18 -15 -25 0 -7 -8 -16 -17
-20 -17 -6 -17 -7 0 -19 22 -17 22 -26 -3 -26 -22 0 -26 20 -10 48 13 24 68
190 75 227 3 17 8 47 11 68 7 42 28 46 28 5z m2228 20 c-13 -13 -52 -18 -52
-7 0 9 15 14 43 16 15 2 17 -1 9 -9z m-2152 -58 c13 -8 13 -10 -2 -10 -9 0
-20 5 -23 10 -8 13 5 13 25 0z m474 -118 c-16 -56 -40 -82 -76 -82 -40 0 -65
15 -83 51 -17 32 -28 132 -14 123 5 -3 9 -12 9 -20 0 -8 7 -28 15 -44 12 -23
22 -30 46 -30 49 0 67 16 86 78 l18 57 5 -45 c3 -25 0 -65 -6 -88z m131 96
c39 0 48 -5 57 -24 8 -18 7 -29 -6 -49 -23 -35 -59 -33 -86 5 -23 32 -38 86
-21 75 6 -3 31 -6 56 -7z m-615 -17 c0 -5 -7 -12 -16 -15 -13 -5 -14 -9 -4
-21 15 -18 5 -34 -11 -18 -15 15 -3 63 16 63 8 0 15 -4 15 -9z m206 -37 c23 6
24 4 18 -21 -9 -39 -13 -43 -41 -54 -49 -18 -88 30 -67 84 5 13 9 13 35 0 17
-9 41 -12 55 -9z m-226 -73 c-5 -11 -7 -27 -4 -35 4 -10 0 -18 -10 -22 -9 -3
-16 -15 -16 -26 0 -31 -25 -15 -28 19 -2 18 3 37 13 47 9 9 13 20 10 26 -4 6
5 10 20 10 22 0 24 -3 15 -19z m1086 -50 c14 -70 -26 -100 -134 -102 -97 -2
-97 41 0 46 97 4 116 21 104 96 -4 31 -4 32 9 15 8 -11 18 -35 21 -55z m-1121
-88 c-4 -10 -10 -26 -12 -35 -7 -24 -30 -23 -43 2 -9 16 -8 20 6 20 10 0 14 5
10 15 -4 11 2 15 20 15 21 0 25 -3 19 -17z m-125 -53 c0 -5 -7 -10 -16 -10 -8
0 -12 5 -9 10 3 6 10 10 16 10 5 0 9 -4 9 -10z m80 -45 c-6 -7 -7 -20 -4 -30
6 -14 2 -16 -22 -13 -36 4 -45 33 -13 43 15 5 18 9 9 15 -7 4 -9 13 -5 20 5 8
12 7 26 -6 13 -12 16 -21 9 -29z m-100 0 c0 -8 -4 -15 -10 -15 -5 0 -10 7 -10
15 0 8 5 15 10 15 6 0 10 -7 10 -15z m-10 -60 c0 -7 -6 -15 -14 -18 -18 -7 -9
-47 10 -47 8 0 14 5 14 10 0 6 7 10 16 10 11 0 14 6 9 20 -5 16 -2 20 19 20
34 0 43 -33 17 -59 -12 -12 -21 -34 -21 -50 0 -17 -5 -33 -10 -36 -6 -4 -8
-11 -4 -16 3 -5 10 -7 15 -4 10 7 12 -25 3 -48 -4 -13 -19 -9 -82 21 -42 19
-79 37 -82 39 -2 3 12 37 33 77 20 40 37 77 37 83 0 13 21 23 33 16 4 -2 7
-10 7 -18z m-43 -221 c59 -32 83 -57 71 -70 -6 -6 -117 52 -140 73 -16 14 -16
33 -1 33 3 0 35 -16 70 -36z"/>
<path d="M6596 5702 c-22 -5 -108 -68 -120 -89 -4 -9 -4 -19 2 -25 13 -13 120
-37 156 -35 59 4 110 85 73 116 -21 17 -90 38 -111 33z"/>
<path d="M3768 3974 c-59 -31 -63 -137 -7 -188 27 -24 37 -27 71 -22 52 8 76
25 88 60 21 60 7 120 -32 145 -30 18 -90 21 -120 5z m110 -59 c19 -41 14 -72
-13 -94 -44 -34 -105 0 -105 58 0 57 96 85 118 36z"/>
<path d="M4013 3975 c-25 -11 -32 -21 -38 -53 -6 -40 5 -79 29 -94 25 -17 74
-8 100 18 30 30 32 53 11 93 -19 38 -62 53 -102 36z m67 -54 c14 -27 13 -28
-15 -47 -20 -13 -28 -14 -40 -4 -20 17 -19 47 3 59 26 15 40 13 52 -8z"/>
<path d="M3585 3970 c-34 -13 -49 -40 -48 -82 3 -53 26 -78 74 -78 30 0 42 6
58 29 25 35 26 54 4 92 -19 32 -59 50 -88 39z m65 -71 c0 -22 -21 -49 -38 -49
-42 0 -57 50 -19 67 23 11 57 0 57 -18z"/>
<path d="M3856 2787 c-77 -8 -96 -19 -96 -52 0 -27 36 -48 82 -47 174 3 526
10 537 11 30 2 -5 19 -54 26 -64 9 -313 8 -432 -1 -81 -5 -93 -4 -93 9 0 35
42 40 363 40 97 0 177 4 177 9 0 9 -21 10 -255 12 -88 0 -191 -2 -229 -7z"/>
<path d="M2755 2701 c-40 -8 -41 -42 -2 -52 30 -8 77 4 77 19 0 9 -34 43 -41
41 -2 -1 -17 -4 -34 -8z"/>
<path d="M2864 2695 c-10 -7 -15 -19 -11 -29 8 -21 97 -23 97 -2 0 30 -59 51
-86 31z"/>
<path d="M3102 2697 c-25 -12 -24 -30 2 -35 20 -4 46 15 46 33 0 14 -18 15
-48 2z"/>
<path d="M2289 2686 c-38 -18 -36 -43 4 -50 43 -8 67 1 67 24 0 33 -34 45 -71
26z"/>
<path d="M2397 2693 c-12 -3 -17 -12 -15 -26 3 -20 10 -22 78 -24 41 -2 90 0
108 3 50 8 39 39 -18 50 -8 2 -27 -3 -42 -10 -14 -8 -30 -10 -35 -6 -12 11
-55 18 -76 13z"/>
<path d="M2624 2686 c-26 -20 -7 -38 43 -40 34 -1 38 2 41 27 3 25 0 27 -30
27 -19 0 -43 -6 -54 -14z"/>
<path d="M2971 2691 c-21 -14 -6 -38 28 -46 44 -10 73 2 69 28 -2 18 -11 22
-43 25 -22 1 -46 -2 -54 -7z"/>
<path d="M3211 2691 c-7 -5 -11 -13 -8 -18 7 -11 77 7 77 19 0 11 -52 10 -69
-1z"/>
<path d="M4092 2504 c-26 -18 -26 -51 0 -68 27 -17 133 13 133 38 0 14 -9 20
-33 22 -18 2 -42 8 -52 14 -24 13 -21 13 -48 -6z"/>
<path d="M3190 1549 c0 -5 5 -7 10 -4 6 3 10 8 10 11 0 2 -4 4 -10 4 -5 0 -10
-5 -10 -11z"/>
</g>
</svg>
